<?xml version="1.0" encoding="utf-8"?>
<!-- Generator: Adobe Illustrator 15.1.0, SVG Export Plug-In . SVG Version: 6.00 Build 0)  -->
<!DOCTYPE svg PUBLIC "-//W3C//DTD SVG 1.1//EN" "http://www.w3.org/Graphics/SVG/1.1/DTD/svg11.dtd">
<svg version="1.1" id="Capa_2" xmlns="http://www.w3.org/2000/svg" xmlns:xlink="http://www.w3.org/1999/xlink" x="0px" y="0px"
	 width="800px" height="800px" viewBox="0 0 800 800" enable-background="new 0 0 800 800" xml:space="preserve">
<g>
	<g>
		<g>
			<path fill="#FFFFFF" d="M119.608,799c-5.549,0-9.608-4.351-9.608-9.365V13.521C110,8.505,114.059,4,119.608,4h564.383
				C689.541,4,694,8.505,694,13.521v776.114c0,5.015-4.459,9.365-10.009,9.365H119.608z"/>
			<path d="M684.012,8.032c3.879,0,6.988,2.146,6.988,5.489v776.114c0,3.343-3.131,6.365-7.009,6.365H119.608
				c-3.877,0-7.608-3.022-7.608-6.365V13.521C112,10.177,115.731,8,119.608,8H684 M683.991,2H119.608
				C112.375,2,106,6.823,106,13.521v776.114c0,6.696,6.375,12.365,13.608,12.365h564.383c7.232,0,13.009-5.669,13.009-12.365V13.521
				C697,6.823,691.437,2,684.204,2H683.991z"/>
		</g>
		<g>
			<g>
				<g>
					<path d="M165.238,65.906c2.139,0,3.796-0.564,4.973-1.693c1.198-1.151,2.091-3.208,2.68-6.171
						c0.046-0.259,0.181-0.453,0.405-0.582c0.224-0.129,0.464-0.194,0.724-0.194c0.353,0,0.687,0.095,1.004,0.283
						s0.476,0.447,0.476,0.775c0,1.646-0.159,3.298-0.476,4.955s-0.799,3.157-1.446,4.497s-1.48,2.433-2.503,3.28
						c-1.022,0.846-2.239,1.27-3.65,1.27c-1.551,0-3.127-0.077-4.725-0.229c-1.6-0.153-3.163-0.33-4.691-0.53
						c-1.529-0.199-2.993-0.375-4.39-0.528c-1.4-0.153-2.675-0.229-3.828-0.229c-1.575-0.047-2.926,0.141-4.055,0.564
						c-0.588,0.188-1.128,0.359-1.623,0.511c-0.494,0.153-0.94,0.277-1.34,0.371c-0.611,0-1.004-0.218-1.181-0.653
						c-0.177-0.435-0.266-0.887-0.266-1.357c0-0.283,0.071-0.623,0.212-1.023c0.917-2.257,1.969-4.238,3.156-5.942
						c1.188-1.704,2.439-3.227,3.756-4.567c1.316-1.34,2.663-2.544,4.039-3.614c1.375-1.07,2.72-2.086,4.037-3.05
						c1.317-0.988,2.563-1.963,3.739-2.927c1.175-0.964,2.198-2.022,3.068-3.174c0.869-1.152,1.563-2.433,2.081-3.844
						c0.517-1.41,0.776-3.056,0.776-4.937c0-3.479-0.753-6.218-2.257-8.217c-1.481-2.045-3.892-3.068-7.23-3.068
						c-1.529,0-2.862,0.264-4.002,0.793c-1.141,0.529-2.087,1.164-2.839,1.904c-0.753,0.741-1.317,1.504-1.692,2.292
						c-0.376,0.788-0.565,1.441-0.565,1.958c0,0.211,0.024,0.493,0.071,0.846c0.046,0.353,0.176,0.7,0.387,1.041
						c0.212,0.341,0.529,0.629,0.952,0.864c0.424,0.236,1.011,0.353,1.763,0.353c1.082,0,1.846,0.276,2.293,0.828
						c0.446,0.553,0.67,1.241,0.67,2.064c0,0.894-0.317,1.705-0.952,2.433c-0.588,0.729-1.541,1.093-2.856,1.093
						c-1.247,0-2.257-0.247-3.033-0.74c-0.777-0.494-1.382-1.094-1.816-1.799c-0.436-0.705-0.736-1.451-0.899-2.239
						c-0.166-0.788-0.248-1.475-0.248-2.063c0-1.716,0.365-3.351,1.093-4.902c0.729-1.551,1.752-2.903,3.069-4.056
						c1.317-1.151,2.897-2.068,4.743-2.75c1.846-0.682,3.886-1.023,6.119-1.023c2.68,0,4.984,0.323,6.913,0.969
						c1.927,0.647,3.514,1.552,4.761,2.716c1.246,1.164,2.162,2.551,2.751,4.161c0.587,1.611,0.881,3.381,0.881,5.308
						c0,2.774-0.611,5.172-1.833,7.194c-1.224,2.045-2.751,3.885-4.585,5.519c-1.833,1.635-3.809,3.134-5.925,4.497
						c-1.058,0.682-2.08,1.353-3.067,2.01c-0.988,0.659-1.94,1.317-2.856,1.975c-1.834,1.293-3.363,2.61-4.585,3.95
						c-1.222,1.317-1.833,2.81-1.833,4.479c0,0.118,0.587,0.047,1.763-0.212c1.222-0.258,2.656-0.388,4.302-0.388
						c0.917,0,1.804,0.047,2.663,0.141c0.858,0.095,1.68,0.206,2.469,0.335c0.788,0.13,1.552,0.242,2.292,0.335
						C163.81,65.859,164.532,65.906,165.238,65.906z"/>
				</g>
			</g>
			<g>
				<g>
					<path d="M620.635,732.246c-2.139,0-3.797,0.565-4.973,1.692c-1.199,1.152-2.093,3.21-2.68,6.173
						c-0.048,0.258-0.183,0.452-0.405,0.581c-0.224,0.13-0.464,0.194-0.724,0.194c-0.353,0-0.688-0.095-1.005-0.283
						c-0.317-0.187-0.477-0.446-0.477-0.774c0-1.646,0.159-3.298,0.477-4.955s0.8-3.157,1.447-4.497
						c0.646-1.34,1.479-2.433,2.503-3.279c1.022-0.847,2.238-1.27,3.65-1.27c1.551,0,3.126,0.077,4.725,0.229
						c1.599,0.153,3.162,0.329,4.689,0.53c1.53,0.199,2.994,0.374,4.392,0.528c1.399,0.152,2.675,0.229,3.827,0.229
						c1.575,0.046,2.927-0.142,4.056-0.564c0.587-0.188,1.128-0.359,1.622-0.511c0.492-0.154,0.94-0.277,1.341-0.372
						c0.61,0,1.004,0.218,1.181,0.654c0.176,0.434,0.264,0.886,0.264,1.356c0,0.282-0.071,0.623-0.211,1.023
						c-0.916,2.258-1.969,4.237-3.157,5.942c-1.187,1.703-2.438,3.227-3.755,4.567c-1.315,1.34-2.663,2.543-4.038,3.614
						c-1.375,1.07-2.721,2.086-4.037,3.05c-1.317,0.988-2.563,1.964-3.739,2.928s-2.197,2.021-3.068,3.174
						c-0.869,1.151-1.563,2.433-2.08,3.844s-0.776,3.056-0.776,4.938c0,3.479,0.753,6.219,2.258,8.218
						c1.479,2.044,3.892,3.067,7.229,3.067c1.53,0,2.863-0.265,4.003-0.794c1.142-0.528,2.086-1.163,2.84-1.904
						c0.753-0.741,1.316-1.504,1.692-2.292s0.564-1.44,0.564-1.957c0-0.212-0.023-0.494-0.071-0.847
						c-0.047-0.353-0.176-0.7-0.389-1.041c-0.21-0.341-0.527-0.629-0.951-0.863c-0.423-0.235-1.011-0.353-1.763-0.353
						c-1.082,0-1.847-0.276-2.293-0.828c-0.446-0.554-0.67-1.241-0.67-2.064c0-0.894,0.317-1.704,0.952-2.434
						c0.587-0.728,1.539-1.092,2.856-1.092c1.246,0,2.257,0.246,3.033,0.739c0.775,0.495,1.382,1.095,1.816,1.8
						s0.735,1.451,0.898,2.238c0.166,0.789,0.247,1.476,0.247,2.063c0,1.717-0.364,3.352-1.093,4.902
						c-0.729,1.552-1.752,2.904-3.069,4.055c-1.315,1.152-2.896,2.069-4.741,2.751c-1.847,0.682-3.886,1.022-6.121,1.022
						c-2.679,0-4.983-0.322-6.911-0.969s-3.515-1.552-4.761-2.716c-1.245-1.164-2.162-2.552-2.751-4.161
						c-0.587-1.61-0.882-3.381-0.882-5.308c0-2.775,0.612-5.172,1.834-7.194c1.224-2.046,2.751-3.885,4.585-5.519
						c1.834-1.635,3.809-3.134,5.926-4.497c1.056-0.682,2.079-1.353,3.067-2.01c0.987-0.658,1.939-1.316,2.856-1.976
						c1.833-1.293,3.363-2.609,4.585-3.95c1.222-1.317,1.833-2.81,1.833-4.479c0-0.117-0.587-0.048-1.763,0.213
						c-1.223,0.258-2.656,0.387-4.303,0.387c-0.917,0-1.805-0.047-2.662-0.141c-0.858-0.095-1.682-0.206-2.47-0.335
						c-0.787-0.129-1.551-0.241-2.291-0.335C622.063,732.293,621.341,732.246,620.635,732.246z"/>
				</g>
			</g>
		</g>
	</g>
	<g>
		<path fill-rule="evenodd" clip-rule="evenodd" d="M172.639,101.776c-1.516,0-2.976,0.24-4.346,0.681
			c2.291-2.521,3.684-5.869,3.684-9.542c0-7.842-6.355-14.197-14.197-14.197c-7.841,0-14.197,6.355-14.197,14.197
			c0,4.082,1.727,7.76,4.485,10.35c-1.152-0.302-2.363-0.465-3.61-0.465c-7.841,0-14.197,6.356-14.197,14.197
			c0,7.841,6.356,14.197,14.197,14.197c4.555,0,8.606-2.26,11.203-5.595c-0.649,8.7-1.338,15.401-1.338,15.401h8.509
			c0,0-1.007-7.465-1.85-17.04c2.565,3.685,6.829,6.153,11.657,6.153c7.842,0,14.198-6.328,14.198-14.169
			C186.837,108.104,180.481,101.776,172.639,101.776z M154.448,106.714c-0.022,0.045-0.043,0.089-0.066,0.134
			c-0.07-0.067-0.14-0.134-0.211-0.201C154.262,106.67,154.355,106.692,154.448,106.714z"/>
		<path fill-rule="evenodd" clip-rule="evenodd" d="M658.554,676.772c0-7.841-6.355-14.221-14.197-14.221
			c-4.829,0-9.093,2.188-11.657,5.872c0.843-9.574,1.85-17.424,1.85-17.424h-8.509c0,0,0.689,7.086,1.339,15.785
			c-2.598-3.335-6.648-5.299-11.204-5.299c-7.841,0-14.196,6.399-14.196,14.24c0,7.84,6.355,14.219,14.196,14.219
			c1.247,0,2.458-0.151,3.611-0.453c-2.76,2.59-4.486,6.273-4.486,10.355c0,7.842,6.357,14.2,14.197,14.2
			c7.841,0,14.196-6.354,14.196-14.197c0-3.672-1.394-7.02-3.683-9.54c1.369,0.44,2.83,0.68,4.346,0.68
			C652.198,690.99,658.554,684.612,658.554,676.772z M625.887,686.121c0.071-0.066,0.143-0.134,0.211-0.201
			c0.022,0.045,0.045,0.09,0.066,0.135C626.072,686.076,625.979,686.098,625.887,686.121z"/>
	</g>
	<path fill-rule="evenodd" clip-rule="evenodd" d="M430.8,627.445c-3.735,0-7.33,0.593-10.704,1.678
		c5.636-6.208,9.072-14.452,9.072-23.497c0-19.31-15.653-34.963-34.961-34.963c-19.311,0-34.963,15.653-34.963,34.963
		c0,10.055,4.25,19.11,11.044,25.488c-2.839-0.743-5.818-1.144-8.89-1.144c-19.31,0-34.963,15.652-34.963,34.962
		c0,19.309,15.653,34.962,34.963,34.962c11.216,0,21.193-5.088,27.591-13.301c-1.6,21.428-3.297,38.406-3.297,38.406h20.953
		c0,0-2.478-18.861-4.554-42.442c6.316,9.071,16.815,14.913,28.709,14.913c19.31,0,34.962-15.702,34.962-35.012
		S450.109,627.445,430.8,627.445z M385.999,639.609c-0.053,0.11-0.109,0.219-0.164,0.329c-0.17-0.167-0.345-0.331-0.519-0.496
		C385.541,639.503,385.77,639.554,385.999,639.609z"/>
	<path fill-rule="evenodd" clip-rule="evenodd" d="M429.587,154.502c-3.734,0-7.33,0.592-10.704,1.677
		c5.636-6.209,9.072-14.452,9.072-23.497c0-19.31-15.653-34.963-34.961-34.963c-19.311,0-34.963,15.653-34.963,34.963
		c0,10.054,4.25,19.109,11.044,25.488c-2.838-0.744-5.818-1.144-8.89-1.144c-19.309,0-34.963,15.653-34.963,34.962
		c0,19.31,15.654,34.963,34.963,34.963c11.216,0,21.193-5.117,27.591-13.33c-1.6,21.428-3.297,38.379-3.297,38.379h20.953
		c0,0-2.478-18.834-4.553-42.415c6.316,9.071,16.815,14.928,28.708,14.928c19.31,0,34.962-15.696,34.962-35.005
		C464.549,170.198,448.896,154.502,429.587,154.502z M384.786,166.665c-0.053,0.11-0.109,0.219-0.164,0.329
		c-0.17-0.167-0.344-0.332-0.519-0.496C384.329,166.558,384.557,166.61,384.786,166.665z"/>
</g>
</svg>
