<?xml version="1.0" encoding="UTF-8" standalone="no"?>
<!-- Generator: Adobe Illustrator 19.0.0, SVG Export Plug-In . SVG Version: 6.00 Build 0)  -->

<svg
   xmlns:dc="http://purl.org/dc/elements/1.1/"
   xmlns:cc="http://creativecommons.org/ns#"
   xmlns:rdf="http://www.w3.org/1999/02/22-rdf-syntax-ns#"
   xmlns:svg="http://www.w3.org/2000/svg"
   xmlns="http://www.w3.org/2000/svg"
   xmlns:sodipodi="http://sodipodi.sourceforge.net/DTD/sodipodi-0.dtd"
   xmlns:inkscape="http://www.inkscape.org/namespaces/inkscape"
   version="1.1"
   id="Layer_1"
   x="0px"
   y="0px"
   viewBox="0 0 434.027 434.027"
   style="enable-background:new 0 0 434.027 434.027;"
   xml:space="preserve"
   inkscape:version="0.91 r13725"
   sodipodi:docname="mieteorite.svg"><metadata
     id="metadata101"><rdf:RDF><cc:Work
         rdf:about=""><dc:format>image/svg+xml</dc:format><dc:type
           rdf:resource="http://purl.org/dc/dcmitype/StillImage" /><dc:title></dc:title></cc:Work></rdf:RDF></metadata><defs
     id="defs99" /><sodipodi:namedview
     pagecolor="#ffffff"
     bordercolor="#666666"
     borderopacity="1"
     objecttolerance="10"
     gridtolerance="10"
     guidetolerance="10"
     inkscape:pageopacity="0"
     inkscape:pageshadow="2"
     inkscape:window-width="685"
     inkscape:window-height="480"
     id="namedview97"
     showgrid="false"
     inkscape:zoom="0.54374496"
     inkscape:cx="217.0135"
     inkscape:cy="217.0135"
     inkscape:window-x="0"
     inkscape:window-y="0"
     inkscape:window-maximized="0"
     inkscape:current-layer="Layer_1" /><g
     id="g3"><path
       style="fill:#FCBC1D;"
       d="M89.961,181.568L34.988,83.129l95.902,52.436l-29.7-73.166l78.166,34.7l-9.333-48.56   l223.975,223.975c18.24,16.76,29.09,40.64,29.09,66.4c0,36.69-21.92,69.43-55.84,83.41c-10.52,4.34-21.67,6.62-33.13,6.77   l-1.22,0.01c-14.34,0-27.92-3.36-39.97-9.37c-0.66-0.33-1.32-0.66-1.97-1c-0.66-0.33-1.31-0.69-1.95-1.06   c-0.65-0.35-1.29-0.72-1.93-1.11c-0.52-0.3-1.03-0.61-1.54-0.93c-0.41-0.25-0.81-0.5-1.21-0.76c-0.55-0.35-1.09-0.7-1.62-1.06   c-0.69-0.46-1.37-0.93-2.04-1.42c-0.58-0.41-1.16-0.83-1.72-1.25c-0.58-0.43-1.14-0.86-1.7-1.3c-1.13-0.9-2.25-1.82-3.34-2.76   c-0.54-0.47-1.08-0.95-1.62-1.44L54.64,187.996L89.961,181.568z"
       id="path5" /><path
       style="fill:#F24125;"
       d="M262.709,338.911c0,29.13,17.747,54.118,43.018,64.733c8.356,3.515,17.539,5.457,27.172,5.457   c10.453,0,20.37-2.286,29.285-6.383c9.818-4.512,18.42-11.228,25.162-19.508c9.845-12.082,15.744-27.501,15.744-44.299   c0-20.476-8.764-38.903-22.751-51.733c-12.49-11.462-29.149-18.457-47.44-18.457c-0.317,0-0.631,0.004-0.945,0.004   c-9.119,0.125-17.819,1.984-25.781,5.268C280.664,284.503,262.709,309.608,262.709,338.911z"
       id="path7" /><path
       style="fill:#FFFFFF;"
       d="M378.609,311.239c-1.561,0-3.099-0.729-4.074-2.097c-2.063-2.891-4.431-5.57-7.038-7.963   c-2.346-2.152-4.899-4.092-7.592-5.766c-2.345-1.458-3.063-4.542-1.605-6.886c1.459-2.345,4.541-3.064,6.887-1.606   c3.218,2.001,6.27,4.319,9.071,6.89c3.12,2.863,5.952,6.067,8.418,9.524c1.604,2.249,1.081,5.371-1.167,6.974   C380.628,310.936,379.614,311.239,378.609,311.239z"
       id="path9" /><path
       style="fill:#FFFFFF;"
       d="M356.342,394.998c-1.893,0-3.704-1.08-4.546-2.913c-1.153-2.509-0.054-5.478,2.455-6.631   c7.075-3.252,13.424-8.175,18.359-14.239c7.511-9.217,11.479-20.387,11.479-32.304c0-4.383-0.57-8.763-1.693-13.02   c-0.705-2.67,0.888-5.406,3.558-6.111c2.675-0.704,5.406,0.889,6.11,3.558c1.344,5.089,2.025,10.328,2.025,15.572   c0,14.245-4.746,27.599-13.726,38.619c-5.894,7.241-13.48,13.124-21.938,17.01C357.75,394.851,357.04,394.998,356.342,394.998z"
       id="path11" /><g
       id="g13"><path
         style="opacity:0.27;fill:#333333;enable-background:new    ;"
         d="M262.709,338.911c0,29.13,17.747,54.118,43.018,64.733    c8.159,3.431,17.105,5.363,26.488,5.453c-7.06-0.121-13.786-2.048-19.931-5.453c-19.172-10.616-32.633-35.604-32.633-64.733    c0-29.304,13.62-54.409,32.973-64.919c6.039-3.284,12.641-5.143,19.557-5.268h-0.227c-9.119,0.125-17.819,1.984-25.782,5.268    C280.664,284.503,262.709,309.608,262.709,338.911z"
         id="path15" /></g><path
       style="fill:#333333;"
       d="M402.814,350.249c-0.149,0-0.3-0.007-0.451-0.021c-2.75-0.246-4.78-2.674-4.535-5.425   c0.175-1.949,0.263-3.931,0.263-5.892c0-26.328-15.684-49.928-39.955-60.124c-7.993-3.362-16.483-5.067-25.235-5.067   c-2.762,0-5-2.239-5-5s2.238-5,5-5c10.091,0,19.885,1.968,29.11,5.848c27.992,11.758,46.08,38.977,46.08,69.342   c0,2.257-0.102,4.539-0.302,6.782C407.556,348.292,405.374,350.249,402.814,350.249z"
       id="path17" /><path
       style="fill:#333333;"
       d="M397.163,372.178c-0.673,0-1.357-0.137-2.014-0.426c-2.526-1.114-3.673-4.065-2.559-6.592   c0.977-2.217,1.838-4.515,2.56-6.832c0.821-2.637,3.629-4.107,6.261-3.287c2.636,0.821,4.107,3.625,3.286,6.261   c-0.833,2.675-1.827,5.33-2.956,7.89C400.917,371.064,399.085,372.178,397.163,372.178z"
       id="path19" /><path
       style="fill:#333333;"
       d="M332.9,414.102c-8.926,0-17.662-1.549-25.967-4.605c-2.592-0.954-3.92-3.828-2.966-6.419   s3.828-3.919,6.419-2.966c7.195,2.647,14.77,3.99,22.514,3.99l0.944-0.004c8.226-0.113,16.281-1.758,23.875-4.89   c10.843-4.467,20.307-11.807,27.372-21.228c1.657-2.208,4.791-2.657,7-1s2.657,4.791,1,7   c-8.145,10.859-19.058,19.322-31.562,24.473c-8.763,3.615-18.056,5.514-27.617,5.645L332.9,414.102z"
       id="path21" /><path
       style="fill:#333333;"
       d="M285.458,395.645c-1.208,0-2.419-0.435-3.379-1.316c-15.487-14.209-24.37-34.408-24.37-55.417   c0-29.288,17.199-56.117,43.817-68.351c2.508-1.154,5.479-0.054,6.631,2.455c1.153,2.509,0.054,5.478-2.455,6.631   c-23.08,10.608-37.993,33.871-37.993,59.265c0,18.215,7.702,35.729,21.13,48.049c2.035,1.867,2.171,5.03,0.305,7.064   C288.158,395.1,286.81,395.645,285.458,395.645z"
       id="path23" /><path
       style="fill:#333333;"
       d="M198.224,336.739c-1.279,0-2.56-0.488-3.535-1.464L7.49,148.076c-1.953-1.953-1.953-5.119,0-7.071   c1.951-1.952,5.119-1.952,7.07,0l187.199,187.199c1.953,1.953,1.953,5.119,0,7.071C200.784,336.25,199.503,336.739,198.224,336.739   z"
       id="path25" /><path
       style="fill:#333333;"
       d="M332.931,434.027c-25.05,0-49.344-9.855-67.317-27.829l-53.425-53.424   c-1.953-1.953-1.953-5.119,0-7.071c1.951-1.952,5.119-1.952,7.07,0l53.425,53.424c19.708,19.708,47.918,28.507,75.458,23.538   c2.71-0.492,5.317,1.314,5.809,4.033c0.49,2.717-1.315,5.318-4.033,5.808C344.26,433.527,338.577,434.027,332.931,434.027z"
       id="path27" /><path
       style="fill:#333333;"
       d="M372.422,424.955c-1.854,0-3.635-1.035-4.5-2.813c-1.208-2.483-0.175-5.475,2.309-6.684   c8.47-4.121,16.169-9.616,22.885-16.331c26.507-26.507,32.498-68.027,14.569-100.967c-1.32-2.425-0.424-5.461,2.001-6.782   c2.429-1.321,5.462-0.423,6.782,2.001c9.616,17.667,13.404,38.443,10.666,58.501c-2.83,20.735-12.148,39.518-26.948,54.318   c-7.503,7.503-16.109,13.644-25.58,18.252C373.902,424.793,373.156,424.955,372.422,424.955z"
       id="path29" /><path
       style="fill:#333333;"
       d="M396.651,280.16c-1.279,0-2.56-0.488-3.535-1.464L252.359,137.938c-1.953-1.953-1.953-5.119,0-7.071   c1.951-1.952,5.119-1.952,7.07,0l140.757,140.757c1.953,1.953,1.953,5.119,0,7.071C399.21,279.672,397.93,280.16,396.651,280.16z"
       id="path31" /><path
       style="fill:#333333;"
       d="M245.227,128.736c-1.279,0-2.56-0.488-3.535-1.464L122.955,8.536c-1.953-1.953-1.953-5.119,0-7.071   c1.951-1.953,5.119-1.953,7.07,0l118.736,118.736c1.953,1.953,1.953,5.119,0,7.071   C247.787,128.248,246.506,128.736,245.227,128.736z"
       id="path33" /><path
       style="fill:#333333;"
       d="M164.944,87.686c-1.279,0-2.56-0.488-3.535-1.465L135.438,60.25c-1.953-1.953-1.953-5.118,0-7.071   c1.951-1.952,5.119-1.953,7.07,0l25.971,25.971c1.953,1.953,1.953,5.118,0,7.071C167.503,87.198,166.223,87.686,164.944,87.686z"
       id="path35" /><path
       style="fill:#333333;"
       d="M328.611,251.352c-1.279,0-2.56-0.488-3.535-1.464L175.742,100.554   c-1.953-1.953-1.953-5.119,0-7.071c1.951-1.953,5.119-1.953,7.07,0l149.334,149.334c1.953,1.953,1.953,5.119,0,7.071   C331.17,250.864,329.89,251.352,328.611,251.352z"
       id="path37" /><path
       style="fill:#333333;"
       d="M204.877,171.086c-1.279,0-2.56-0.488-3.535-1.464L97.656,65.934c-1.953-1.953-1.953-5.119,0-7.071   c1.951-1.952,5.119-1.953,7.07,0L208.413,162.55c1.953,1.953,1.953,5.119,0,7.071C207.437,170.598,206.157,171.086,204.877,171.086   z"
       id="path39" /><path
       style="fill:#333333;"
       d="M280.406,246.614c-1.279,0-2.56-0.488-3.535-1.464l-58.195-58.195c-1.953-1.953-1.953-5.119,0-7.071   c1.951-1.952,5.119-1.952,7.07,0l58.195,58.195c1.953,1.953,1.953,5.119,0,7.071C282.965,246.125,281.685,246.614,280.406,246.614z   "
       id="path41" /><path
       style="fill:#333333;"
       d="M291.579,257.791c-1.31,0-2.6-0.53-3.529-1.46c-0.23-0.23-0.44-0.49-0.62-0.76   c-0.181-0.27-0.34-0.56-0.46-0.87c-0.13-0.3-0.221-0.61-0.29-0.93c-0.061-0.32-0.101-0.65-0.101-0.98c0-1.32,0.54-2.6,1.471-3.53   c0.229-0.23,0.479-0.44,0.76-0.63c0.27-0.18,0.56-0.33,0.859-0.46c0.301-0.12,0.62-0.22,0.94-0.28c0.64-0.13,1.31-0.13,1.95,0   c0.319,0.06,0.64,0.16,0.939,0.28c0.301,0.13,0.591,0.28,0.86,0.46c0.27,0.19,0.53,0.4,0.76,0.63c0.931,0.93,1.46,2.22,1.46,3.53   c0,0.33-0.029,0.66-0.09,0.98c-0.07,0.32-0.16,0.63-0.29,0.93c-0.12,0.31-0.28,0.6-0.46,0.87s-0.39,0.53-0.62,0.76   c-0.229,0.23-0.49,0.44-0.76,0.62s-0.56,0.33-0.86,0.46c-0.3,0.12-0.62,0.22-0.939,0.28   C292.24,257.761,291.91,257.791,291.579,257.791z"
       id="path43" /><path
       style="fill:#333333;"
       d="M100.811,110.485c-1.279,0-2.56-0.488-3.535-1.464L75.922,87.668c-1.953-1.953-1.953-5.119,0-7.071   c1.951-1.953,5.119-1.953,7.07,0l21.354,21.354c1.953,1.953,1.953,5.119,0,7.071C103.371,109.997,102.09,110.485,100.811,110.485z"
       id="path45" /><path
       style="fill:#333333;"
       d="M111.81,121.481c-1.32,0-2.61-0.53-3.54-1.46s-1.46-2.22-1.46-3.53c0-0.33,0.03-0.66,0.1-0.98   c0.061-0.32,0.16-0.64,0.28-0.94c0.13-0.3,0.28-0.59,0.46-0.86c0.18-0.28,0.39-0.53,0.62-0.76c1.16-1.16,2.899-1.69,4.52-1.37   c0.32,0.07,0.63,0.16,0.931,0.29c0.3,0.12,0.59,0.28,0.859,0.46c0.28,0.18,0.53,0.39,0.761,0.62c0.239,0.23,0.449,0.48,0.63,0.76   c0.18,0.27,0.33,0.56,0.46,0.86c0.12,0.3,0.22,0.62,0.279,0.94c0.07,0.32,0.101,0.65,0.101,0.98c0,0.32-0.03,0.65-0.101,0.97   c-0.06,0.32-0.159,0.63-0.279,0.94c-0.13,0.3-0.28,0.59-0.46,0.86c-0.19,0.27-0.391,0.53-0.63,0.76   c-0.23,0.23-0.48,0.44-0.761,0.62c-0.27,0.18-0.56,0.34-0.859,0.46c-0.301,0.13-0.61,0.22-0.931,0.29   C112.47,121.451,112.14,121.481,111.81,121.481z"
       id="path47" /><path
       style="fill:#333333;"
       d="M258.672,268.347c-1.279,0-2.56-0.488-3.535-1.464L120.609,132.354   c-1.953-1.953-1.953-5.119,0-7.071c1.951-1.952,5.119-1.952,7.07,0l134.528,134.528c1.953,1.953,1.953,5.119,0,7.071   C261.232,267.859,259.952,268.347,258.672,268.347z"
       id="path49" /><path
       style="fill:#333333;"
       d="M214.203,267.344c-1.279,0-2.56-0.488-3.535-1.464L31.453,86.665c-1.953-1.953-1.953-5.119,0-7.071   c1.951-1.953,5.119-1.953,7.07,0l179.215,179.215c1.953,1.953,1.953,5.119,0,7.071   C216.762,266.856,215.482,267.344,214.203,267.344z"
       id="path51" /><path
       style="fill:#333333;"
       d="M250.411,303.552c-1.279,0-2.56-0.488-3.535-1.464l-26.333-26.333c-1.953-1.953-1.953-5.119,0-7.071   c1.951-1.952,5.119-1.952,7.07,0l26.333,26.333c1.953,1.953,1.953,5.119,0,7.071C252.97,303.064,251.69,303.552,250.411,303.552z"
       id="path53" /><path
       style="fill:#333333;"
       d="M91.011,187.619c-1.279,0-2.56-0.488-3.535-1.464L51.18,149.858c-1.953-1.953-1.953-5.119,0-7.071   c1.951-1.952,5.119-1.952,7.07,0l36.296,36.296c1.953,1.953,1.953,5.119,0,7.071C93.571,187.13,92.29,187.619,91.011,187.619z"
       id="path55" /><path
       style="fill:#333333;"
       d="M158.011,254.619c-1.279,0-2.56-0.488-3.535-1.464l-49.833-49.833c-1.953-1.953-1.953-5.119,0-7.071   c1.951-1.952,5.119-1.952,7.07,0l49.833,49.833c1.953,1.953,1.953,5.119,0,7.071C160.571,254.13,159.29,254.619,158.011,254.619z"
       id="path57" /><path
       style="fill:#333333;"
       d="M243.678,340.285c-1.279,0-2.56-0.488-3.535-1.464l-75.667-75.667c-1.953-1.953-1.953-5.119,0-7.071   c1.951-1.952,5.119-1.952,7.07,0l75.667,75.667c1.953,1.953,1.953,5.119,0,7.071C246.238,339.797,244.957,340.285,243.678,340.285z   "
       id="path59" /><circle
       style="opacity:0.27;fill:#333333;enable-background:new    ;"
       cx="366.889"
       cy="333.574"
       r="8.5"
       id="circle61" /><circle
       style="opacity:0.27;fill:#333333;enable-background:new    ;"
       cx="319.415"
       cy="308.074"
       r="12"
       id="circle63" /><circle
       style="opacity:0.27;fill:#333333;enable-background:new    ;"
       cx="322.139"
       cy="358.824"
       r="16.75"
       id="circle65" /></g><g
     id="g67" /><g
     id="g69" /><g
     id="g71" /><g
     id="g73" /><g
     id="g75" /><g
     id="g77" /><g
     id="g79" /><g
     id="g81" /><g
     id="g83" /><g
     id="g85" /><g
     id="g87" /><g
     id="g89" /><g
     id="g91" /><g
     id="g93" /><g
     id="g95" /></svg>